<svg width="29" height="30" viewBox="0 0 29 30" fill="none" xmlns="http://www.w3.org/2000/svg">
<path fill-rule="evenodd" clip-rule="evenodd" d="M21.5 2C20.6716 2 20 2.67157 20 3.5V8.5C20 9.32843 20.6716 10 21.5 10H24.5C25.3284 10 26 9.32843 26 8.5V5H24.5C23.6716 5 23 4.32843 23 3.5V2H21.5ZM24 2.70711L25.2929 4H24.5C24.2239 4 24 3.77614 24 3.5V2.70711ZM19 3.5C19 2.11929 20.1193 1 21.5 1H23.5C23.6326 1 23.7598 1.05268 23.8536 1.14645L26.8536 4.14645C26.9473 4.24021 27 4.36739 27 4.5V8.5C27 9.88071 25.8807 11 24.5 11H21.5C20.1193 11 19 9.88071 19 8.5V3.5ZM21.6464 6.64645L22.6464 5.64645C22.8417 5.45118 23.1583 5.45118 23.3536 5.64645L24.3536 6.64645C24.5488 6.84171 24.5488 7.15829 24.3536 7.35355C24.1583 7.54882 23.8417 7.54882 23.6464 7.35355L23.5 7.20711V8.5C23.5 8.77614 23.2761 9 23 9C22.7239 9 22.5 8.77614 22.5 8.5L22.5 7.20711L22.3536 7.35355C22.1583 7.54882 21.8417 7.54882 21.6464 7.35355C21.4512 7.15829 21.4512 6.84171 21.6464 6.64645Z" fill="#8909C4"/>
<path fill-rule="evenodd" clip-rule="evenodd" d="M12.9091 10C12.5576 10 12.2727 10.2849 12.2727 10.6364V12.9091H12.8515C13.733 12.9091 14.5561 13.3496 15.0451 14.0831L15.7099 15.0803C15.8279 15.2573 16.0266 15.3636 16.2394 15.3636H19.4545C21.8143 15.3636 23.7273 17.2766 23.7273 19.6364V20.8597C24.4811 20.4897 25 19.7145 25 18.8182V14.7273C25 13.4721 23.9825 12.4545 22.7273 12.4545H19.5121C18.6306 12.4545 17.8075 12.014 17.3185 11.2806L16.6537 10.2834C16.5357 10.1063 16.337 10 16.1242 10H12.9091ZM23.7273 22.9732C25.6046 22.5231 27 20.8336 27 18.8182V14.7273C27 12.3675 25.087 10.4545 22.7273 10.4545H19.5121C19.2993 10.4545 19.1007 10.3482 18.9826 10.1712L18.3178 9.17397C17.8289 8.44054 17.0057 8 16.1242 8H12.9091C11.4531 8 10.2727 9.18034 10.2727 10.6364V12.9091H9.63636C8.18034 12.9091 7 14.0894 7 15.5455V23.7273C7 26.087 8.91297 28 11.2727 28H19.4545C21.8143 28 23.7273 26.087 23.7273 23.7273V22.9732ZM21.7273 19.6364C21.7273 18.3812 20.7097 17.3636 19.4545 17.3636H16.2394C15.3579 17.3636 14.5348 16.9231 14.0458 16.1897L13.381 15.1925C13.263 15.0154 13.0643 14.9091 12.8515 14.9091H9.63636C9.28491 14.9091 9 15.194 9 15.5455V23.7273C9 24.9825 10.0175 26 11.2727 26H19.4545C20.7097 26 21.7273 24.9825 21.7273 23.7273V19.6364Z" fill="#9144FD"/>
<path fill-rule="evenodd" clip-rule="evenodd" d="M6.1775 7C5.90135 7 5.6775 7.22386 5.6775 7.5L5.67749 8.30289L7.69077 10.4951C7.7755 10.5874 7.82251 10.7081 7.82251 10.8333V13H8.6775C8.95364 13 9.1775 12.7761 9.1775 12.5V9.33333H8.53464C7.70622 9.33333 7.03464 8.66176 7.03464 7.83333V7H6.1775ZM8.03464 7.78365L8.53946 8.33333H8.53464C8.2585 8.33333 8.03464 8.10948 8.03464 7.83333V7.78365ZM7.82251 14H8.6775C9.50593 14 10.1775 13.3284 10.1775 12.5V8.83333C10.1775 8.70808 10.1305 8.58739 10.0458 8.49513L7.90291 6.1618C7.80822 6.05869 7.67464 6 7.53464 6H6.1775C5.34907 6 4.6775 6.67157 4.6775 7.49999L4.67749 8H3.32251C2.49408 8 1.82251 8.67157 1.82251 9.5V14.5C1.82251 15.3284 2.49408 16 3.32251 16H6.32251C7.15094 16 7.82251 15.3284 7.82251 14.5V14ZM6.82251 11.3333H6.17965C5.35123 11.3333 4.67965 10.6618 4.67965 9.83333V9H3.32251C3.04637 9 2.82251 9.22386 2.82251 9.5V14.5C2.82251 14.7761 3.04637 15 3.32251 15H6.32251C6.59865 15 6.82251 14.7761 6.82251 14.5V11.3333ZM5.67965 9.78365V9.83333C5.67965 10.1095 5.90351 10.3333 6.17965 10.3333H6.18447L5.67965 9.78365ZM3.32501 12.495C3.32501 12.2189 3.54887 11.995 3.82501 11.995H5.82501C6.10115 11.995 6.32501 12.2189 6.32501 12.495C6.32501 12.7711 6.10115 12.995 5.82501 12.995H3.82501C3.54887 12.995 3.32501 12.7711 3.32501 12.495ZM3.32501 13.995C3.32501 13.7189 3.54887 13.495 3.82501 13.495H5.82501C6.10115 13.495 6.32501 13.7189 6.32501 13.995C6.32501 14.2711 6.10115 14.495 5.82501 14.495H3.82501C3.54887 14.495 3.32501 14.2711 3.32501 13.995Z" fill="#C119BB"/>
</svg>
