<svg width="117" height="117" viewBox="0 0 117 117" fill="none" xmlns="http://www.w3.org/2000/svg">
<rect x="0.5" y="0.5" width="116" height="116" stroke="black"/>
<rect x="0.5" y="0.5" width="116" height="116" stroke="black" stroke-opacity="0.2"/>
<path fill-rule="evenodd" clip-rule="evenodd" d="M38.8977 20.1667C37.2137 20.1667 35.8485 21.5319 35.8485 23.2159V34.1061H38.6219C42.8456 34.1061 46.7899 36.217 49.1328 39.7313L52.3183 44.5096C52.8838 45.3579 53.8359 45.8674 54.8554 45.8674H70.2614C81.5686 45.8674 90.7349 55.0337 90.7349 66.3409V72.2025C94.3469 70.4299 96.8333 66.7155 96.8333 62.4205V42.8182C96.8333 36.8037 91.9577 31.928 85.9432 31.928H70.5373C66.3135 31.928 62.3692 29.8171 60.0263 26.3027L56.8408 21.5245C56.2753 20.6762 55.3232 20.1667 54.3037 20.1667H38.8977ZM90.7349 82.3301C99.7305 80.173 106.417 72.0776 106.417 62.4205V42.8182C106.417 31.511 97.2504 22.3447 85.9432 22.3447H70.5373C69.5177 22.3447 68.5657 21.8352 68.0001 20.9869L64.8146 16.2086C62.4717 12.6942 58.5274 10.5833 54.3037 10.5833H38.8977C31.921 10.5833 26.2652 16.2391 26.2652 23.2159V34.1061H23.2159C16.2391 34.1061 10.5833 39.7619 10.5833 46.7386V85.9432C10.5833 97.2504 19.7496 106.417 31.0568 106.417H70.2614C81.5686 106.417 90.7349 97.2504 90.7349 85.9432V82.3301ZM81.1515 66.3409C81.1515 60.3264 76.2758 55.4508 70.2614 55.4508H54.8554C50.6317 55.4508 46.6874 53.3398 44.3445 49.8255L41.159 45.0472C40.5935 44.1989 39.6414 43.6894 38.6219 43.6894H23.2159C21.5319 43.6894 20.1667 45.0546 20.1667 46.7386V85.9432C20.1667 91.9577 25.0424 96.8333 31.0568 96.8333H70.2614C76.2758 96.8333 81.1515 91.9576 81.1515 85.9432V66.3409Z" fill="#9144FD"/>
<rect x="0.5" y="-0.5" width="50" height="49" transform="matrix(-1 0 0 1 68 51)" stroke="black"/>
<rect x="0.5" y="-0.5" width="50" height="49" transform="matrix(-1 0 0 1 68 51)" stroke="black" stroke-opacity="0.2"/>
<path fill-rule="evenodd" clip-rule="evenodd" d="M41.7752 59C42.9028 59 43.8169 59.8954 43.8169 61L43.8169 64.2116L35.596 72.9805C35.25 73.3495 35.0581 73.8323 35.0581 74.3333V83H31.5669C30.4393 83 29.5252 82.1046 29.5252 81V68.3333H32.1502C35.5329 68.3333 38.2752 65.647 38.2752 62.3333V59H41.7752ZM34.1919 62.1346L32.1305 64.3333H32.1502C33.2778 64.3333 34.1919 63.4379 34.1919 62.3333V62.1346ZM35.0581 87H31.5669C28.1841 87 25.4419 84.3137 25.4419 81V66.3333C25.4419 65.8323 25.6338 65.3495 25.9798 64.9805L34.7298 55.6472C35.1164 55.2348 35.6619 55 36.2335 55H41.7752C45.1579 55 47.9002 57.6863 47.9002 61L47.9002 63H53.4331C56.8158 63 59.5581 65.6863 59.5581 69V89C59.5581 92.3137 56.8158 95 53.4331 95H41.1831C37.8003 95 35.0581 92.3137 35.0581 89V87ZM39.1414 76.3333H41.7664C45.1492 76.3333 47.8914 73.647 47.8914 70.3333V67H53.4331C54.5607 67 55.4747 67.8954 55.4747 69V89C55.4747 90.1046 54.5607 91 53.4331 91H41.1831C40.0555 91 39.1414 90.1046 39.1414 89V76.3333ZM43.8081 70.1346V70.3333C43.8081 71.4379 42.894 72.3333 41.7664 72.3333H41.7467L43.8081 70.1346ZM53.4229 80.98C53.4229 79.8754 52.5088 78.98 51.3812 78.98H43.2145C42.0869 78.98 41.1729 79.8754 41.1729 80.98C41.1729 82.0846 42.0869 82.98 43.2145 82.98H51.3812C52.5088 82.98 53.4229 82.0846 53.4229 80.98ZM53.4229 86.98C53.4229 85.8754 52.5088 84.98 51.3812 84.98H43.2145C42.0869 84.98 41.1729 85.8754 41.1729 86.98C41.1729 88.0846 42.0869 88.98 43.2145 88.98H51.3812C52.5088 88.98 53.4229 88.0846 53.4229 86.98Z" fill="#C119BB"/>
</svg>
