<svg width="236" height="236" viewBox="0 0 236 236" fill="none" xmlns="http://www.w3.org/2000/svg">
<rect width="166.285" height="166.285" transform="translate(0 121.144) rotate(-46.7636)" fill="#D5B0FF"/>
<path opacity="0.2" d="M178.098 174.479C209.553 141.026 207.932 88.4081 174.479 56.9536C141.026 25.499 88.4081 27.1191 56.9536 60.5722C25.499 94.0254 27.1191 146.643 60.5722 178.098C94.0253 209.553 146.643 207.932 178.098 174.479Z" fill="#652C93"/>
<path fill-rule="evenodd" clip-rule="evenodd" d="M142.525 154.462L126.424 149.374L132.493 173.088C133.792 172.741 135.078 172.351 136.35 171.916C137.956 171.367 139.536 170.745 141.086 170.052C146.032 167.833 150.639 164.923 154.767 161.409C155.627 160.676 156.469 159.915 157.294 159.128L142.525 154.462Z" fill="#2DDCD0"/>
<path fill-rule="evenodd" clip-rule="evenodd" d="M144.313 66.5798C143.112 65.9531 141.888 65.3701 140.645 64.8318L138.963 118.802L138.729 126.249L142.364 129.037L166.595 147.609C167.665 145.869 168.641 144.072 169.52 142.228C179.97 120.251 175.635 93.1555 156.955 75.5912C153.072 71.9401 148.81 68.9489 144.313 66.5798Z" fill="#4D24AB"/>
<path fill-rule="evenodd" clip-rule="evenodd" d="M123.368 156.116L143.003 162.32L144.293 120.965L99.9025 86.9395L123.368 156.116Z" fill="#2694EE"/>
<path fill-rule="evenodd" clip-rule="evenodd" d="M124.573 151.869L104.361 92.2808L106.046 93.5735L103.882 87.1949L103.859 87.1769L78.4362 139.702L126.887 155.011L125.97 152.309L124.573 151.869Z" fill="#9127CF"/>
<path fill-rule="evenodd" clip-rule="evenodd" d="M141.485 157.212L154.765 161.407C156.392 160.025 157.964 158.547 159.46 156.955C163.671 152.477 167.015 147.499 169.522 142.228L142.599 121.592L141.485 157.212Z" fill="#F048F0"/>
<path fill-rule="evenodd" clip-rule="evenodd" d="M142.597 121.591L169.521 142.227C179.97 120.251 175.635 93.1554 156.955 75.5912C153.072 71.94 148.81 68.9488 144.312 66.5797L142.597 121.591Z" fill="#4D24AB"/>
<path fill-rule="evenodd" clip-rule="evenodd" d="M80.1683 73.7411C78.5644 75.1085 77.0364 76.5625 75.591 78.0966C61.5274 93.0538 57.0291 113.543 61.8346 132.047C63.0631 136.753 64.8846 141.285 67.2551 145.532L82.0009 138.418L104.34 92.2658L104.349 92.2484L87.0008 68.7281C84.6029 70.2285 82.3192 71.9041 80.1683 73.7411V73.7411Z" fill="#4225D4"/>
<path fill-rule="evenodd" clip-rule="evenodd" d="M119.943 60.0323C111.382 59.6724 102.848 61.2235 94.9607 64.5731C92.2028 65.7484 89.5413 67.1382 87.0008 68.7298L104.349 92.2501L104.36 92.2823L142.597 121.591L144.312 66.5799C136.775 62.6168 128.451 60.3802 119.943 60.0323V60.0323Z" fill="#F422E6"/>
<path fill-rule="evenodd" clip-rule="evenodd" d="M124.573 151.868L82.0011 138.418L67.2561 145.531C70.1249 150.708 73.7821 155.408 78.0964 159.46C92.9966 173.47 113.384 177.987 131.833 173.272C133.357 172.881 134.865 172.429 136.353 171.918L131.808 154.155L124.573 151.868V151.868Z" fill="#4CAA4C"/>
<path fill-rule="evenodd" clip-rule="evenodd" d="M141.485 157.211L131.806 154.153L136.35 171.916C137.956 171.366 139.536 170.745 141.086 170.052C146.032 167.833 150.639 164.923 154.767 161.409L141.485 157.211V157.211Z" fill="#2DDCD0"/>
<path fill-rule="evenodd" clip-rule="evenodd" d="M94.961 64.5728C102.848 61.2233 111.382 59.6722 119.943 60.0321L104.348 92.2507L94.961 64.5728ZM142.597 121.591L104.361 92.2807L104.35 92.2485L119.945 60.0307C128.452 60.3803 136.776 62.6173 144.312 66.58L142.597 121.591Z" fill="#F422E6"/>
<path fill-rule="evenodd" clip-rule="evenodd" d="M124.573 151.868L141.485 157.211L142.597 121.591L104.361 92.2805L124.573 151.868Z" fill="#2694EE"/>
<path fill-rule="evenodd" clip-rule="evenodd" d="M104.341 92.2649L80.1707 73.7385C78.5661 75.1068 77.0373 76.5617 75.5911 78.0965C61.5274 93.0537 57.0291 113.543 61.8346 132.047L82.001 138.418L104.341 92.2649Z" fill="#CA1EB0"/>
<path fill-rule="evenodd" clip-rule="evenodd" d="M104.341 92.2648L82.0009 138.418L124.573 151.868L104.361 92.2804L104.341 92.2648Z" fill="#9127CF"/>
<path fill-rule="evenodd" clip-rule="evenodd" d="M104.348 92.251L94.9598 64.5723C89.5903 66.8559 84.602 69.948 80.1682 73.7411L104.339 92.2675L104.348 92.251Z" fill="#35A9E1"/>
<path fill-rule="evenodd" clip-rule="evenodd" d="M141.485 157.212L154.765 161.407C156.392 160.025 157.964 158.547 159.46 156.955C163.671 152.477 167.015 147.499 169.522 142.228L142.599 121.592L141.485 157.212Z" fill="#F048F0"/>
<path fill-rule="evenodd" clip-rule="evenodd" d="M142.597 121.591L169.521 142.227C179.97 120.251 175.635 93.1554 156.955 75.5912C153.072 71.94 148.81 68.9488 144.312 66.5797L142.597 121.591Z" fill="#4D24AB"/>
<path fill-rule="evenodd" clip-rule="evenodd" d="M141.086 170.053C146.032 167.833 150.639 164.923 154.767 161.409L141.488 157.214L141.086 170.053V170.053Z" fill="#2DDCD0"/>
<path fill-rule="evenodd" clip-rule="evenodd" d="M61.8349 132.047C64.0383 140.561 68.1751 148.451 73.9238 155.106L82.0012 138.418L61.8349 132.047Z" fill="#0E4A7A"/>
<path fill-rule="evenodd" clip-rule="evenodd" d="M82.0012 138.418L73.9238 155.106C75.2389 156.628 76.6316 158.082 78.0965 159.461C92.9967 173.471 113.384 177.987 131.833 173.272L124.573 151.869L82.0012 138.418Z" fill="#4CAA4C"/>
<path fill-rule="evenodd" clip-rule="evenodd" d="M124.573 151.868L131.833 173.272C135.003 172.466 138.099 171.389 141.085 170.053L141.485 157.212L124.573 151.868V151.868Z" fill="#51B34B"/>
<path fill-rule="evenodd" clip-rule="evenodd" d="M92.0628 79.0545L94.0609 82.8215C107.007 78.5349 123.384 77.9801 135.039 80.277L136.963 76.4145C124.321 73.797 106.281 74.3427 92.0628 79.0545V79.0545Z" fill="#444344"/>
<path fill-rule="evenodd" clip-rule="evenodd" d="M98.9489 58.08C93.6615 63.7034 92.1414 71.4928 94.2607 78.3778C94.5357 79.2797 94.872 80.1619 95.2672 81.018C95.3708 81.2372 95.4914 81.4485 95.6063 81.664C95.7101 81.8595 95.8034 82.0594 95.9127 82.2507C107.888 78.6903 122.338 78.1452 133.277 79.9642C133.314 79.8726 133.359 79.7857 133.395 79.6942C133.655 79.0029 133.876 78.2976 134.057 77.5816C134.197 77.0389 134.325 76.4942 134.424 75.9455C135.621 69.2777 133.546 62.1642 128.243 57.178C119.905 49.3378 106.791 49.74 98.9489 58.08Z" fill="#2694EE"/>
<path fill-rule="evenodd" clip-rule="evenodd" d="M95.6063 81.6641C95.7101 81.8596 95.8034 82.0595 95.9127 82.2508C107.888 78.6904 122.338 78.1453 133.277 79.9642C133.314 79.8727 133.359 79.7858 133.395 79.6943C133.655 79.003 133.876 78.2977 134.057 77.5816C122.89 76.076 107.815 77.3073 95.6063 81.6641V81.6641Z" fill="#C03225"/>
</svg>
